<svg width="33" height="34" viewBox="0 0 33 34" fill="none" xmlns="http://www.w3.org/2000/svg">
<path d="M33 17.467C33 26.5797 25.6127 33.967 16.5 33.967C7.3873 33.967 0 26.5797 0 17.467C0 8.35434 7.3873 0.967041 16.5 0.967041C25.6127 0.967041 33 8.35434 33 17.467Z" fill="#34D399"/>
<g clip-path="url(#clip0_1_7227)">
<path d="M23.5106 10.4469C23.3465 10.4469 23.2134 10.5888 23.2134 10.7639V11.3474H22.6423V10.7639C22.6423 10.5888 22.5092 10.4469 22.3451 10.4469C22.1809 10.4469 22.0479 10.5888 22.0479 10.7639V12.565C22.0479 12.7401 22.1809 12.882 22.3451 12.882C22.5092 12.882 22.6423 12.7401 22.6423 12.565V11.9815H23.2134V12.565C23.2134 12.7401 23.3465 12.882 23.5106 12.882C23.6747 12.882 23.8078 12.7401 23.8078 12.565V10.7639C23.8078 10.5888 23.6747 10.4469 23.5106 10.4469V10.4469Z" fill="white"/>
<path d="M24.2404 9.26099H21.6111C21.1922 9.26099 20.8515 9.62444 20.8515 10.0712V11.3474H20.2836V9.58929C20.2836 9.4142 20.1505 9.27227 19.9864 9.27227H10.2972C10.1331 9.27227 10 9.4142 10 9.58929V24.356C10 24.5311 10.1331 24.673 10.2972 24.673H19.9864C20.1506 24.673 20.2836 24.5311 20.2836 24.356V18.7C20.2836 18.5249 20.1506 18.383 19.9864 18.383C19.8223 18.383 19.6892 18.5249 19.6892 18.7V24.039H16.7764V22.3061C16.7764 22.131 16.6434 21.9891 16.4792 21.9891H13.8044C13.6403 21.9891 13.5072 22.131 13.5072 22.3061V24.039H10.5944V9.9063H19.6892V15.7914C19.6892 15.9665 19.8223 16.1084 19.9864 16.1084C20.1506 16.1084 20.2836 15.9665 20.2836 15.7914V11.9815H20.8515V13.2483C20.8515 13.695 21.1922 14.0585 21.6111 14.0585H24.2404C24.6593 14.0585 25 13.695 25 13.2483V10.0712C25 9.62444 24.6593 9.26099 24.2404 9.26099V9.26099ZM14.1016 22.6231H16.182V24.039H14.1016V22.6231ZM24.4056 13.2483C24.4056 13.3454 24.3315 13.4244 24.2404 13.4244H21.6111C21.52 13.4244 21.4459 13.3454 21.4459 13.2483V10.0712C21.4459 9.97408 21.52 9.89505 21.6111 9.89505H24.2404C24.3315 9.89505 24.4056 9.97408 24.4056 10.0712V13.2483Z" fill="white"/>
<path d="M13.5867 11.4589C13.5867 11.2838 13.4537 11.1418 13.2895 11.1418H11.9422C11.7781 11.1418 11.645 11.2838 11.645 11.4589V12.896C11.645 13.0711 11.7781 13.213 11.9422 13.213H13.2895C13.4537 13.213 13.5867 13.0711 13.5867 12.896V11.4589ZM12.9923 12.579H12.2394V11.7759H12.9923V12.579Z" fill="white"/>
<path d="M16.1229 11.4589C16.1229 11.2838 15.9898 11.1418 15.8257 11.1418H14.4784C14.3142 11.1418 14.1812 11.2838 14.1812 11.4589V12.896C14.1812 13.0711 14.3142 13.213 14.4784 13.213H15.8257C15.9898 13.213 16.1229 13.0711 16.1229 12.896V11.4589ZM15.5285 12.579H14.7756V11.7759H15.5285V12.579Z" fill="white"/>
<path d="M18.639 11.4589C18.639 11.2838 18.5059 11.1418 18.3418 11.1418H16.9945C16.8303 11.1418 16.6973 11.2838 16.6973 11.4589V12.896C16.6973 13.0711 16.8303 13.213 16.9945 13.213H18.3418C18.5059 13.213 18.639 13.0711 18.639 12.896V11.4589ZM18.0446 12.579H17.2917V11.7759H18.0446V12.579Z" fill="white"/>
<path d="M13.5867 14.1548C13.5867 13.9797 13.4537 13.8378 13.2895 13.8378H11.9422C11.7781 13.8378 11.645 13.9797 11.645 14.1548V15.5919C11.645 15.767 11.7781 15.9089 11.9422 15.9089H13.2895C13.4537 15.9089 13.5867 15.767 13.5867 15.5919V14.1548ZM12.9923 15.2749H12.2394V14.4718H12.9923V15.2749Z" fill="white"/>
<path d="M16.1229 14.1548C16.1229 13.9797 15.9898 13.8378 15.8257 13.8378H14.4784C14.3142 13.8378 14.1812 13.9797 14.1812 14.1548V15.5919C14.1812 15.767 14.3142 15.9089 14.4784 15.9089H15.8257C15.9898 15.9089 16.1229 15.767 16.1229 15.5919V14.1548ZM15.5285 15.2749H14.7756V14.4718H15.5285V15.2749Z" fill="white"/>
<path d="M18.639 14.1548C18.639 13.9797 18.5059 13.8378 18.3418 13.8378H16.9945C16.8303 13.8378 16.6973 13.9797 16.6973 14.1548V15.5919C16.6973 15.767 16.8303 15.9089 16.9945 15.9089H18.3418C18.5059 15.9089 18.639 15.767 18.639 15.5919V14.1548ZM18.0446 15.2749H17.2917V14.4718H18.0446V15.2749Z" fill="white"/>
<path d="M13.5867 16.8506C13.5867 16.6755 13.4537 16.5336 13.2895 16.5336H11.9422C11.7781 16.5336 11.645 16.6755 11.645 16.8506V18.2877C11.645 18.4628 11.7781 18.6047 11.9422 18.6047H13.2895C13.4537 18.6047 13.5867 18.4628 13.5867 18.2877V16.8506ZM12.9923 17.9707H12.2394V17.1676H12.9923V17.9707Z" fill="white"/>
<path d="M16.1229 16.8506C16.1229 16.6755 15.9898 16.5336 15.8257 16.5336H14.4784C14.3142 16.5336 14.1812 16.6755 14.1812 16.8506V18.2877C14.1812 18.4628 14.3142 18.6047 14.4784 18.6047H15.8257C15.9898 18.6047 16.1229 18.4628 16.1229 18.2877V16.8506ZM15.5285 17.9707H14.7756V17.1676H15.5285V17.9707Z" fill="white"/>
<path d="M18.639 16.8506C18.639 16.6755 18.5059 16.5336 18.3418 16.5336H16.9945C16.8303 16.5336 16.6973 16.6755 16.6973 16.8506V18.2877C16.6973 18.4628 16.8303 18.6047 16.9945 18.6047H18.3418C18.5059 18.6047 18.639 18.4628 18.639 18.2877V16.8506ZM18.0446 17.9707H17.2917V17.1676H18.0446V17.9707Z" fill="white"/>
<path d="M13.2895 19.2295H11.9422C11.7781 19.2295 11.645 19.3714 11.645 19.5465V20.9836C11.645 21.1587 11.7781 21.3006 11.9422 21.3006H13.2895C13.4537 21.3006 13.5867 21.1587 13.5867 20.9836V19.5465C13.5867 19.3714 13.4537 19.2295 13.2895 19.2295ZM12.9923 20.6666H12.2394V19.8635H12.9923V20.6666Z" fill="white"/>
<path d="M15.8257 19.2295H14.4784C14.3142 19.2295 14.1812 19.3714 14.1812 19.5465V20.9836C14.1812 21.1587 14.3142 21.3006 14.4784 21.3006H15.8257C15.9898 21.3006 16.1229 21.1587 16.1229 20.9836V19.5465C16.1229 19.3714 15.9898 19.2295 15.8257 19.2295ZM15.5285 20.6666H14.7756V19.8635H15.5285V20.6666Z" fill="white"/>
<path d="M18.3418 19.2295H16.9945C16.8303 19.2295 16.6973 19.3714 16.6973 19.5465V20.9836C16.6973 21.1587 16.8303 21.3006 16.9945 21.3006H18.3418C18.5059 21.3006 18.639 21.1587 18.639 20.9836V19.5465C18.639 19.3714 18.5059 19.2295 18.3418 19.2295ZM18.0446 20.6666H17.2917V19.8635H18.0446V20.6666Z" fill="white"/>
<path d="M19.9871 17.5773C20.1513 17.5773 20.2843 17.4353 20.2843 17.2603C20.2843 17.0852 20.1513 16.9432 19.9871 16.9432C19.823 16.9432 19.6899 17.0852 19.6899 17.2603C19.6899 17.4353 19.823 17.5773 19.9871 17.5773Z" fill="white"/>
</g>
<defs>
<clipPath id="clip0_1_7227">
<rect width="15" height="16" fill="white" transform="translate(10 8.96704)"/>
</clipPath>
</defs>
</svg>
