<svg width="15" height="16" viewBox="0 0 15 16" fill="none" xmlns="http://www.w3.org/2000/svg">
<path d="M13.5106 1.4469C13.3465 1.4469 13.2134 1.58883 13.2134 1.76392V2.34745H12.6423V1.76392C12.6423 1.58883 12.5092 1.4469 12.3451 1.4469C12.1809 1.4469 12.0479 1.58883 12.0479 1.76392V3.56501C12.0479 3.7401 12.1809 3.88202 12.3451 3.88202C12.5092 3.88202 12.6423 3.7401 12.6423 3.56501V2.98148H13.2134V3.56501C13.2134 3.7401 13.3465 3.88202 13.5106 3.88202C13.6747 3.88202 13.8078 3.7401 13.8078 3.56501V1.76392C13.8078 1.58883 13.6747 1.4469 13.5106 1.4469Z" fill="white"/>
<path d="M14.2404 0.260986H11.6111C11.1922 0.260986 10.8515 0.624445 10.8515 1.07118V2.34742H10.2836V0.589288C10.2836 0.4142 10.1505 0.272272 9.98641 0.272272H0.297202C0.133057 0.272272 0 0.4142 0 0.589288V15.356C0 15.5311 0.133057 15.673 0.297202 15.673H9.98644C10.1506 15.673 10.2836 15.5311 10.2836 15.356V9.70003C10.2836 9.52494 10.1506 9.38301 9.98644 9.38301C9.82232 9.38301 9.68924 9.52494 9.68924 9.70003V15.039H6.77645V13.3061C6.77645 13.131 6.64339 12.9891 6.47924 12.9891H3.80443C3.64028 12.9891 3.50722 13.131 3.50722 13.3061V15.039H0.594404V0.906303H9.68924V6.79141C9.68924 6.9665 9.82232 7.10843 9.98644 7.10843C10.1506 7.10843 10.2836 6.9665 10.2836 6.79141V2.98146H10.8515V4.24828C10.8515 4.69502 11.1922 5.05848 11.6111 5.05848H14.2404C14.6593 5.05848 15 4.69502 15 4.24828V1.07121C15 0.624445 14.6593 0.260986 14.2404 0.260986ZM4.1016 13.6231H6.18201V15.039H4.1016V13.6231ZM14.4056 4.24828C14.4056 4.34542 14.3315 4.42445 14.2404 4.42445H11.6111C11.52 4.42445 11.4459 4.34542 11.4459 4.24828V1.07121C11.4459 0.974081 11.52 0.895049 11.6111 0.895049H14.2404C14.3315 0.895049 14.4056 0.974081 14.4056 1.07121V4.24828Z" fill="white"/>
<path d="M3.58673 2.45886C3.58673 2.28377 3.45367 2.14185 3.28953 2.14185H1.94222C1.77808 2.14185 1.64502 2.28377 1.64502 2.45886V3.89599C1.64502 4.07108 1.77808 4.213 1.94222 4.213H3.28953C3.45367 4.213 3.58673 4.07108 3.58673 3.89599V2.45886ZM2.99233 3.57897H2.23942V2.77588H2.99233V3.57897Z" fill="white"/>
<path d="M6.12286 2.45886C6.12286 2.28377 5.98981 2.14185 5.82566 2.14185H4.47835C4.31421 2.14185 4.18115 2.28377 4.18115 2.45886V3.89599C4.18115 4.07108 4.31421 4.213 4.47835 4.213H5.82566C5.98981 4.213 6.12286 4.07108 6.12286 3.89599V2.45886ZM5.52846 3.57897H4.77556V2.77588H5.52846V3.57897Z" fill="white"/>
<path d="M8.63898 2.45886C8.63898 2.28377 8.50589 2.14185 8.34177 2.14185H6.99447C6.83032 2.14185 6.69727 2.28377 6.69727 2.45886V3.89599C6.69727 4.07108 6.83032 4.213 6.99447 4.213H8.34177C8.50589 4.213 8.63898 4.07108 8.63898 3.89599V2.45886ZM8.04457 3.57897H7.29167V2.77588H8.04457V3.57897Z" fill="white"/>
<path d="M3.58673 5.15478C3.58673 4.9797 3.45367 4.83777 3.28953 4.83777H1.94222C1.77808 4.83777 1.64502 4.9797 1.64502 5.15478V6.59191C1.64502 6.767 1.77808 6.90893 1.94222 6.90893H3.28953C3.45367 6.90893 3.58673 6.767 3.58673 6.59191V5.15478ZM2.99233 6.27493H2.23942V5.47183H2.99233V6.27493Z" fill="white"/>
<path d="M6.12286 5.15478C6.12286 4.9797 5.98981 4.83777 5.82566 4.83777H4.47835C4.31421 4.83777 4.18115 4.9797 4.18115 5.15478V6.59191C4.18115 6.767 4.31421 6.90893 4.47835 6.90893H5.82566C5.98981 6.90893 6.12286 6.767 6.12286 6.59191V5.15478ZM5.52846 6.27493H4.77556V5.47183H5.52846V6.27493Z" fill="white"/>
<path d="M8.63898 5.15478C8.63898 4.9797 8.50589 4.83777 8.34177 4.83777H6.99447C6.83032 4.83777 6.69727 4.9797 6.69727 5.15478V6.59191C6.69727 6.767 6.83032 6.90893 6.99447 6.90893H8.34177C8.50589 6.90893 8.63898 6.767 8.63898 6.59191V5.15478ZM8.04457 6.27493H7.29167V5.47183H8.04457V6.27493Z" fill="white"/>
<path d="M3.58673 7.85058C3.58673 7.6755 3.45367 7.53357 3.28953 7.53357H1.94222C1.77808 7.53357 1.64502 7.6755 1.64502 7.85058V9.28771C1.64502 9.4628 1.77808 9.60473 1.94222 9.60473H3.28953C3.45367 9.60473 3.58673 9.4628 3.58673 9.28771V7.85058ZM2.99233 8.9707H2.23942V8.1676H2.99233V8.9707Z" fill="white"/>
<path d="M6.12286 7.85058C6.12286 7.6755 5.98981 7.53357 5.82566 7.53357H4.47835C4.31421 7.53357 4.18115 7.6755 4.18115 7.85058V9.28771C4.18115 9.4628 4.31421 9.60473 4.47835 9.60473H5.82566C5.98981 9.60473 6.12286 9.4628 6.12286 9.28771V7.85058ZM5.52846 8.9707H4.77556V8.1676H5.52846V8.9707Z" fill="white"/>
<path d="M8.63898 7.85058C8.63898 7.6755 8.50589 7.53357 8.34177 7.53357H6.99447C6.83032 7.53357 6.69727 7.6755 6.69727 7.85058V9.28771C6.69727 9.4628 6.83032 9.60473 6.99447 9.60473H8.34177C8.50589 9.60473 8.63898 9.4628 8.63898 9.28771V7.85058ZM8.04457 8.9707H7.29167V8.1676H8.04457V8.9707Z" fill="white"/>
<path d="M3.28953 10.2295H1.94222C1.77808 10.2295 1.64502 10.3714 1.64502 10.5465V11.9836C1.64502 12.1587 1.77808 12.3006 1.94222 12.3006H3.28953C3.45367 12.3006 3.58673 12.1587 3.58673 11.9836V10.5465C3.58673 10.3714 3.45367 10.2295 3.28953 10.2295ZM2.99233 11.6666H2.23942V10.8635H2.99233V11.6666Z" fill="white"/>
<path d="M5.82566 10.2295H4.47835C4.31421 10.2295 4.18115 10.3714 4.18115 10.5465V11.9836C4.18115 12.1587 4.31421 12.3006 4.47835 12.3006H5.82566C5.98981 12.3006 6.12286 12.1587 6.12286 11.9836V10.5465C6.12286 10.3714 5.98981 10.2295 5.82566 10.2295ZM5.52846 11.6666H4.77556V10.8635H5.52846V11.6666Z" fill="white"/>
<path d="M8.34177 10.2295H6.99447C6.83032 10.2295 6.69727 10.3714 6.69727 10.5465V11.9836C6.69727 12.1587 6.83032 12.3006 6.99447 12.3006H8.34177C8.50589 12.3006 8.63898 12.1587 8.63898 11.9836V10.5465C8.63898 10.3714 8.50589 10.2295 8.34177 10.2295ZM8.04457 11.6666H7.29167V10.8635H8.04457V11.6666Z" fill="white"/>
<path d="M9.98714 8.57727C10.1513 8.57727 10.2843 8.43534 10.2843 8.26025C10.2843 8.08517 10.1513 7.94324 9.98714 7.94324C9.823 7.94324 9.68994 8.08517 9.68994 8.26025C9.68994 8.43534 9.823 8.57727 9.98714 8.57727Z" fill="white"/>
</svg>
