<svg width="29" height="29" viewBox="0 0 29 29" fill="none" xmlns="http://www.w3.org/2000/svg">
<g clip-path="url(#clip0_14_3532)">
<path d="M8.16651 5.61347C5.99922 5.32082 3.8008 5.84876 2.00277 7.09366C1.38257 7.52952 0.833257 8.05834 0.374163 8.66152C0.303354 8.75256 0.273007 8.93126 0.117902 8.87731C-0.0372035 8.82337 0.00663062 8.66827 0.00325876 8.54014C-0.0051993 7.23774 0.235134 5.9457 0.711348 4.73345C1.07533 3.7534 1.65075 2.86556 2.39669 2.13304C3.14264 1.40052 4.04079 0.841316 5.02732 0.495173C6.48399 -0.0308815 8.06682 -0.0983207 9.56297 0.301924C11.0591 0.702169 12.3968 1.55091 13.3963 2.73401C14.8259 4.41988 15.4194 6.44292 15.4902 8.58397C15.5408 9.87872 15.4902 11.1802 15.4902 12.4783C15.4902 12.8762 15.3486 12.9537 14.9945 12.8593C13.2648 12.3907 11.5181 11.9355 9.78163 11.4769C7.08415 10.7486 4.60921 11.0959 2.38041 12.8256C1.76517 13.3193 1.22854 13.9037 0.7889 14.5587C0.721463 14.6565 0.667514 14.8183 0.522524 14.7745C0.377534 14.7307 0.417997 14.5621 0.42474 14.4373C0.60682 11.0015 1.96568 8.25017 5.04081 6.52047C6.00725 6.0015 7.07238 5.69243 8.16651 5.61347Z" fill="#EB5F52"/>
<path d="M20.8243 23.3994C22.9496 23.703 25.112 23.208 26.8936 22.0103C27.4666 21.6554 27.9695 21.1982 28.3772 20.6616C28.4469 20.5576 28.5235 20.4585 28.6065 20.3649C28.6841 20.2806 28.7481 20.1255 28.8965 20.1895C29.0449 20.2536 28.9909 20.3817 28.9875 20.4896C28.9572 20.9853 28.9538 21.5012 28.883 21.9732C28.6234 23.7434 28.0266 25.3719 26.7823 26.6936C25.8587 27.6901 24.6628 28.3936 23.3431 28.7167C22.1859 29.0397 20.9676 29.0768 19.7929 28.8248C18.6182 28.5729 17.5223 28.0394 16.5994 27.2702C14.9134 25.9215 14.0165 24.0738 13.6625 21.9597C13.3523 20.1221 13.5343 18.2508 13.4905 16.4199C13.4905 16.0828 13.676 16.0828 13.9322 16.1435L19.2564 17.5798C21.9539 18.3014 24.4591 17.9372 26.6744 16.1738C27.2734 15.69 27.7992 15.1222 28.2356 14.4879C28.2963 14.4036 28.3435 14.2587 28.475 14.2957C28.6065 14.3328 28.5661 14.4846 28.5627 14.5891C28.475 18.5913 26.0271 22.3711 21.9539 23.241C21.583 23.305 21.2053 23.3421 20.8243 23.3994Z" fill="#3A3557"/>
<path d="M23.4107 8.18275C23.6535 5.63034 23.0735 3.31733 21.3876 1.33475C21.0875 0.997577 20.7132 0.734581 20.376 0.414266C20.285 0.326601 20.0793 0.289512 20.1568 0.117553C20.2344 -0.0544055 20.4064 0.0130293 20.5379 0.0130293C21.6015 0.0358646 22.6568 0.206072 23.6737 0.51879C26.5263 1.44602 28.3437 3.38477 28.8495 6.31481C29.3755 9.34937 28.2965 11.9119 25.8148 13.79C24.3016 14.879 22.4898 15.4758 20.6255 15.4994C19.2768 15.5635 17.928 15.5197 16.5793 15.5197C16.0938 15.5197 16.06 15.4691 16.1882 14.9768C16.6805 13.1223 17.1997 11.2679 17.665 9.41681C18.4911 6.17319 17.4223 2.84192 14.5629 0.839105C14.4449 0.758183 14.2258 0.710979 14.2898 0.528905C14.3539 0.346831 14.5326 0.434497 14.6607 0.44124C17.8539 0.613199 20.4738 1.854 22.2575 4.59522C22.9177 5.68419 23.3127 6.91307 23.4107 8.18275Z" fill="#EB5F52"/>
<path d="M5.59045 20.9178C5.33756 23.6152 5.98833 26.0259 7.91028 27.9984C8.13282 28.2243 8.38908 28.4131 8.62849 28.6222C8.71953 28.6997 8.89486 28.7469 8.84766 28.8886C8.80045 29.0302 8.61163 28.9964 8.48012 28.9964C7.63836 28.9919 6.79995 28.8901 5.98158 28.693C4.61212 28.3953 3.34688 27.7377 2.31638 26.788C1.38677 25.9284 0.709411 24.8313 0.357333 23.6152C-0.173211 21.9116 -0.0763255 20.0744 0.630453 18.4362C1.38014 16.6642 2.7727 15.2415 4.52831 14.4541C5.95222 13.8015 7.50403 13.4755 9.0702 13.4999H12.4218C12.8973 13.4999 12.9478 13.5539 12.8332 13.9956C12.3746 15.7556 11.9464 17.5089 11.4339 19.2319C10.92 20.8573 10.9372 22.6041 11.4828 24.2191C12.0284 25.8341 13.0742 27.2334 14.4685 28.2142C14.5697 28.285 14.772 28.3187 14.7012 28.4974C14.6506 28.6256 14.482 28.5885 14.364 28.5817C10.8236 28.3626 8.02155 26.9296 6.35586 23.6657C5.93893 22.8027 5.67971 21.8721 5.59045 20.9178Z" fill="#CBA36E"/>
</g>
<defs>
<clipPath id="clip0_14_3532">
<rect width="29" height="29" fill="white"/>
</clipPath>
</defs>
</svg>
