<svg width="33" height="34" viewBox="0 0 33 34" fill="none" xmlns="http://www.w3.org/2000/svg">
<path d="M33 17.467C33 26.5797 25.6127 33.967 16.5 33.967C7.3873 33.967 0 26.5797 0 17.467C0 8.35434 7.3873 0.967041 16.5 0.967041C25.6127 0.967041 33 8.35434 33 17.467Z" fill="#FBBF24"/>
<g clip-path="url(#clip0_1_7187)">
<path d="M24.2956 16.8066C24.5491 16.7793 24.7336 16.5413 24.7077 16.2749C24.3131 12.1716 21.2999 9.00217 17.5134 8.49997L17.6139 8.08788C17.6713 7.84964 17.6212 7.59316 17.4794 7.40173C17.3443 7.21865 17.1434 7.11426 16.9276 7.11426H15.9986C15.7767 7.11426 15.5717 7.22415 15.4366 7.4158C15.2952 7.61646 15.2524 7.88019 15.3215 8.12129L15.4291 8.49711C11.6172 8.9925 8.59345 12.183 8.21408 16.3138C8.18965 16.5806 8.37505 16.8178 8.62853 16.8441C8.64356 16.8455 8.65859 16.8459 8.67363 16.8459C8.90852 16.8459 9.10895 16.6584 9.13213 16.4072C9.49919 12.4085 12.6509 9.39272 16.4626 9.39272C20.2569 9.39272 23.4068 12.3932 23.7901 16.3721C23.816 16.6391 24.0427 16.8327 24.2956 16.8066V16.8066ZM16.2745 8.08459H16.6622L16.5789 8.42788C16.5398 8.42744 16.5018 8.42217 16.4626 8.42217C16.4319 8.42217 16.4024 8.42613 16.372 8.42657L16.2745 8.08459Z" fill="white"/>
<path d="M25.482 17.3693H24.65H8.27511H7.56209C7.30778 17.3693 7.10107 17.5868 7.10107 17.8548C7.10107 18.1227 7.30778 18.3403 7.56209 18.3403H7.88195C8.08657 19.1422 8.77683 19.7374 9.60302 19.7374H11.3596C11.9335 20.4734 13.6421 22.6528 13.6421 22.6528C13.6538 22.6671 13.6661 22.6811 13.6795 22.6948L16.3887 25.4156L16.6616 25.6651L16.2921 25.9352C16.0833 26.0884 16.0313 26.3915 16.1768 26.6108C16.2666 26.7468 16.4102 26.8198 16.5556 26.8198C16.647 26.8198 16.7387 26.7912 16.8188 26.7326L20.3821 24.1088L21.6515 25.3638C21.7407 25.4521 21.8543 25.4956 21.9676 25.4956C22.0902 25.4956 22.213 25.4444 22.3036 25.3429C22.4779 25.1471 22.4687 24.8398 22.2835 24.6567L20.7001 23.0906C20.5554 22.9479 20.348 22.9277 20.1793 23.0167C20.1117 22.7849 20.1033 22.5387 20.1631 22.2994C20.2593 21.9152 20.4432 21.5556 20.6944 21.2607L21.7474 20.0268C21.8165 19.9462 21.8561 19.8438 21.8634 19.7376H23.3229C24.1487 19.7376 24.8385 19.1424 25.0431 18.3405H25.482C25.7369 18.3405 25.9432 18.1229 25.9432 17.855C25.9432 17.5871 25.7367 17.3693 25.482 17.3693V17.3693ZM20.0083 20.6123C19.6597 21.0213 19.4043 21.5187 19.2711 22.0521C19.1371 22.5895 19.1918 23.1488 19.4235 23.6431L17.4427 25.0937L17.0099 24.6985L14.3361 22.0121C14.195 21.8328 13.2306 20.6018 12.5545 19.7374H13.2435C13.2435 19.7374 14.8036 21.1394 14.8153 21.1482C15.3362 21.535 16.5318 21.8792 17.1078 21.8792C17.9238 21.8792 18.7122 21.517 19.2709 20.8855C19.458 20.6743 19.6304 20.4873 19.7645 20.3433C19.9906 20.1005 20.2384 19.9235 20.5005 19.8167C20.6003 19.7767 20.6823 19.7543 20.7483 19.7438L20.0083 20.6123ZM18.5971 20.2231C18.2117 20.6587 17.6688 20.9084 17.1078 20.9084C16.6685 20.9084 15.7045 20.6073 15.3619 20.3657L14.6633 19.7374H19.0372C18.9107 19.875 18.7621 20.037 18.5971 20.2231ZM23.3229 18.7668H20.8385C20.8318 18.7668 20.8249 18.7668 20.8176 18.7668H9.60302C9.29484 18.7668 9.02341 18.5963 8.86995 18.3403H24.0551C23.9017 18.5963 23.6311 18.7668 23.3229 18.7668Z" fill="white"/>
<path d="M21.9338 15.1092C22.177 15.0298 22.3127 14.7575 22.2369 14.5017C21.3771 11.5955 18.9407 10.7575 18.8374 10.7228C18.5958 10.6439 18.3371 10.7839 18.2601 11.0388C18.183 11.2933 18.3167 11.5665 18.5587 11.6485C18.6434 11.6775 20.6439 12.3821 21.356 14.7898C21.4178 14.998 21.5997 15.1314 21.7964 15.1314C21.8421 15.1316 21.8885 15.1241 21.9338 15.1092Z" fill="white"/>
</g>
<defs>
<clipPath id="clip0_1_7187">
<rect width="19" height="20" fill="white" transform="translate(7 6.96704)"/>
</clipPath>
</defs>
</svg>
