<svg width="19" height="20" viewBox="0 0 19 20" fill="none" xmlns="http://www.w3.org/2000/svg">
<path d="M17.2956 9.80657C17.5491 9.77931 17.7336 9.54129 17.7077 9.27492C17.3131 5.17162 14.2999 2.00217 10.5134 1.49997L10.6139 1.08788C10.6713 0.849642 10.6212 0.593159 10.4794 0.40173C10.3443 0.218653 10.1434 0.114258 9.92756 0.114258H8.99865C8.7767 0.114258 8.57167 0.224148 8.43658 0.415796C8.29523 0.616456 8.25243 0.880192 8.32154 1.12129L8.42906 1.49711C4.61716 1.9925 1.59345 5.18305 1.21408 9.31382C1.18965 9.58063 1.37505 9.81777 1.62853 9.84415C1.64356 9.84547 1.65859 9.84591 1.67363 9.84591C1.90852 9.84591 2.10895 9.65843 2.13213 9.40722C2.49919 5.40854 5.65089 2.39272 9.46258 2.39272C13.2569 2.39272 16.4068 5.39316 16.7901 9.37206C16.816 9.63909 17.0427 9.83272 17.2956 9.80657ZM9.27446 1.08459H9.66219L9.57888 1.42788C9.53983 1.42744 9.50183 1.42217 9.46258 1.42217C9.43189 1.42217 9.40245 1.42613 9.37197 1.42657L9.27446 1.08459Z" fill="white"/>
<path d="M18.482 10.3693H17.65H1.27511H0.562085C0.307777 10.3693 0.101074 10.5868 0.101074 10.8548C0.101074 11.1227 0.307777 11.3403 0.562085 11.3403H0.881953C1.08657 12.1422 1.77683 12.7374 2.60302 12.7374H4.35958C4.93355 13.4734 6.64209 15.6528 6.64209 15.6528C6.65378 15.6671 6.6661 15.6811 6.67946 15.6948L9.38873 18.4156L9.66162 18.6651L9.29206 18.9352C9.08327 19.0884 9.03128 19.3915 9.17681 19.6108C9.26659 19.7468 9.41024 19.8198 9.55556 19.8198C9.64701 19.8198 9.73867 19.7912 9.81884 19.7326L13.3821 17.1088L14.6515 18.3638C14.7407 18.4521 14.8543 18.4956 14.9676 18.4956C15.0902 18.4956 15.213 18.4444 15.3036 18.3429C15.4779 18.1471 15.4687 17.8398 15.2835 17.6567L13.7001 16.0906C13.5554 15.9479 13.348 15.9277 13.1793 16.0167C13.1117 15.7849 13.1033 15.5387 13.1631 15.2994C13.2593 14.9152 13.4432 14.5556 13.6944 14.2607L14.7474 13.0268C14.8165 12.9462 14.8561 12.8438 14.8634 12.7376H16.3229C17.1487 12.7376 17.8385 12.1424 18.0431 11.3405H18.482C18.7369 11.3405 18.9432 11.1229 18.9432 10.855C18.9432 10.5871 18.7367 10.3693 18.482 10.3693ZM13.0083 13.6123C12.6597 14.0213 12.4043 14.5187 12.2711 15.0521C12.1371 15.5895 12.1918 16.1488 12.4235 16.6431L10.4427 18.0937L10.0099 17.6985L7.33611 15.0121C7.19496 14.8328 6.23056 13.6018 5.55449 12.7374H6.2435C6.2435 12.7374 7.80359 14.1394 7.81528 14.1482C8.33622 14.535 9.53176 14.8792 10.1078 14.8792C10.9238 14.8792 11.7122 14.517 12.2709 13.8855C12.458 13.6743 12.6304 13.4873 12.7645 13.3433C12.9906 13.1005 13.2384 12.9235 13.5005 12.8167C13.6003 12.7767 13.6823 12.7543 13.7483 12.7438L13.0083 13.6123ZM11.5971 13.2231C11.2117 13.6587 10.6688 13.9084 10.1078 13.9084C9.66851 13.9084 8.70452 13.6073 8.3619 13.3657L7.66328 12.7374H12.0372C11.9107 12.875 11.7621 13.037 11.5971 13.2231ZM16.3229 11.7668H13.8385C13.8318 11.7668 13.8249 11.7668 13.8176 11.7668H2.60302C2.29484 11.7668 2.02341 11.5963 1.86995 11.3403H17.0551C16.9017 11.5963 16.6311 11.7668 16.3229 11.7668Z" fill="white"/>
<path d="M14.9338 8.10916C15.177 8.02982 15.3127 7.75751 15.2369 7.50169C14.3771 4.59553 11.9407 3.75751 11.8374 3.72279C11.5958 3.64389 11.3371 3.78389 11.2601 4.03883C11.183 4.29334 11.3167 4.56652 11.5587 4.6485C11.6434 4.67751 13.6439 5.38213 14.356 7.78982C14.4178 7.99795 14.5997 8.13136 14.7964 8.13136C14.8421 8.13158 14.8885 8.1241 14.9338 8.10916Z" fill="white"/>
</svg>
