<svg width="25" height="14" viewBox="0 0 25 14" fill="none" xmlns="http://www.w3.org/2000/svg">
<path d="M18.9871 8.05542H18.3689C18.1746 8.05542 18.0171 8.21292 18.0171 8.40726C18.0171 8.60161 18.1746 8.75911 18.3689 8.75911H18.9871C19.1814 8.75911 19.3389 8.60161 19.3389 8.40726C19.3389 8.21292 19.1814 8.05542 18.9871 8.05542Z" fill="black"/>
<path d="M24.8407 6.05316C24.8383 5.99391 24.8316 5.93475 24.8201 5.87686L24.0318 1.88743C24.0318 1.88729 24.0318 1.88715 24.0318 1.88701L23.8753 1.09515C23.7702 0.563308 23.3004 0.177246 22.7583 0.177246H1.98372C1.35405 0.177199 0.841797 0.689495 0.841797 1.31917V10.722C0.841797 11.3517 1.35405 11.864 1.98372 11.864H3.09817C3.26809 12.9715 4.22738 13.8224 5.38168 13.8224C6.53597 13.8224 7.49527 12.9715 7.66519 11.864H8.57128C8.76558 11.864 8.92312 11.7065 8.92312 11.5121C8.92312 11.3178 8.76562 11.1603 8.57128 11.1603H7.66514C7.49522 10.0528 6.53593 9.20184 5.38163 9.20184C4.22734 9.20184 3.26804 10.0528 3.09812 11.1603H1.98372C1.74203 11.1603 1.54544 10.9636 1.54544 10.722V1.31917C1.54544 1.07748 1.74203 0.880839 1.98372 0.880839H22.7582C22.9653 0.880839 23.1447 1.02831 23.185 1.23151L23.2585 1.60379H18.639C18.296 1.60379 18.017 1.88279 18.017 2.22573V6.02048C18.017 6.37748 18.188 6.71616 18.4742 6.92639C19.1633 7.43264 20.7041 8.05823 24.1381 8.21311V10.5741C24.1381 10.8974 23.8751 11.1604 23.5518 11.1604H22.5853C22.4154 10.0529 21.4561 9.20193 20.3018 9.20193C19.1475 9.20193 18.1882 10.0529 18.0183 11.1604H10.2084C10.0141 11.1604 9.85654 11.3179 9.85654 11.5122C9.85654 11.7066 10.014 11.8641 10.2084 11.8641H18.0184C18.1883 12.9716 19.1476 13.8225 20.3019 13.8225C21.4562 13.8225 22.4155 12.9716 22.5854 11.8641H23.5519C24.2632 11.8641 24.8418 11.2854 24.8418 10.5742V6.09769V6.09764C24.8417 6.08273 24.8412 6.06792 24.8407 6.05316ZM5.38168 9.90557C6.26757 9.90557 6.98827 10.6263 6.98827 11.5122C6.98827 12.398 6.26757 13.1188 5.38168 13.1188C4.49579 13.1188 3.77509 12.398 3.77509 11.5122C3.77509 10.6263 4.49579 9.90557 5.38168 9.90557ZM20.3019 13.1188C19.416 13.1188 18.6953 12.398 18.6953 11.5121C18.6953 10.6262 19.416 9.90552 20.3019 9.90552C21.1878 9.90552 21.9085 10.6262 21.9085 11.5121C21.9085 12.398 21.1878 13.1188 20.3019 13.1188ZM18.7207 6.02048V2.30748H23.3975L24.1298 6.01345C24.1311 6.02006 24.1318 6.02681 24.1328 6.03352C24.1357 6.05306 24.1375 6.0728 24.1378 6.09253C24.1378 6.09427 24.138 6.09595 24.138 6.09764V7.50872C20.7301 7.35159 19.3905 6.72637 18.8908 6.3593C18.7843 6.28106 18.7207 6.15441 18.7207 6.02048Z" fill="black"/>
<path d="M8.84993 1.60376H2.96055C2.65113 1.60376 2.39941 1.85548 2.39941 2.1649V6.12396C2.39941 6.43338 2.65113 6.6851 2.96055 6.6851H8.84993C9.15935 6.6851 9.41107 6.43338 9.41107 6.12396V2.1649C9.41107 1.85548 9.15935 1.60376 8.84993 1.60376ZM5.5534 5.98146H3.10305V2.3074H5.5534V5.98146ZM8.70743 5.98146H6.25709V2.3074H8.70743V5.98146Z" fill="black"/>
<path d="M16.5731 1.60376H10.6837C10.3743 1.60376 10.1226 1.85548 10.1226 2.1649V6.12396C10.1226 6.43338 10.3743 6.6851 10.6837 6.6851H16.5731C16.8825 6.6851 17.1343 6.43338 17.1343 6.12396V2.1649C17.1343 1.85548 16.8825 1.60376 16.5731 1.60376ZM16.4306 5.98146H13.9802V4.64801C13.9802 4.45367 13.8227 4.29617 13.6284 4.29617C13.434 4.29617 13.2765 4.45367 13.2765 4.64801V5.98146H10.8262V2.3074H13.2765V3.0109C13.2765 3.20524 13.434 3.36274 13.6284 3.36274C13.8227 3.36274 13.9802 3.20524 13.9802 3.0109V2.3074H16.4306V5.98146Z" fill="black"/>
</svg>
