<svg width="33" height="34" viewBox="0 0 33 34" fill="none" xmlns="http://www.w3.org/2000/svg">
<path d="M33 16.8726C33 25.9853 25.6127 33.3726 16.5 33.3726C7.3873 33.3726 0 25.9853 0 16.8726C0 7.75986 7.3873 0.372559 16.5 0.372559C25.6127 0.372559 33 7.75986 33 16.8726Z" fill="#818CF8"/>
<g clip-path="url(#clip0_1_7280)">
<path d="M25.6524 9.82039L24.5034 9.66457C24.2836 9.63461 24.0813 9.78874 24.0515 10.0085C24.0217 10.2283 24.1757 10.4307 24.3955 10.4605L25.1968 10.5692V25.1186L19.6143 24.3457V19.151C19.7728 19.1795 19.9673 19.2283 20.169 19.3121C20.8021 19.575 21.2031 20.0517 21.3608 20.729C21.5177 21.4023 21.7488 21.9693 22.0486 22.4202C21.97 22.5833 21.9259 22.7661 21.9259 22.9589C21.9259 23.6448 22.4839 24.2029 23.1698 24.2029C23.8558 24.2029 24.4138 23.6448 24.4138 22.9589C24.4138 22.273 23.8558 21.7149 23.1698 21.7149C22.9771 21.7149 22.7945 21.759 22.6314 21.8376C22.4267 21.488 22.2602 21.0493 22.1431 20.5468C21.9264 19.6164 21.3504 18.9329 20.4771 18.5703C20.1526 18.4355 19.8436 18.3701 19.6143 18.3384V9.79533L20.8206 9.96231C21.0404 9.99259 21.2431 9.8393 21.2735 9.61959C21.3039 9.39991 21.1505 9.1971 20.9307 9.16674L19.5745 8.97895V7.16564C19.5745 6.94384 19.3947 6.76404 19.1729 6.76404H12.7871C12.5653 6.76404 12.3855 6.94384 12.3855 7.16564V8.29783L6.35393 9.01895C6.15201 9.04309 6 9.21437 6 9.4177V24.779C6 25.0159 6.21373 25.2059 6.44927 25.1777L12.835 24.4142C13.0369 24.3901 13.1889 24.2188 13.1889 24.0155V22.9285H18.8111V24.6955C18.8111 24.8961 18.959 25.0659 19.1576 25.0934L25.5433 25.9774C25.7812 26.0104 26 25.8195 26 25.5796V10.2184C26 10.0174 25.8515 9.84737 25.6524 9.82039V9.82039ZM23.6105 22.9589C23.6105 23.2019 23.4128 23.3997 23.1698 23.3997C22.9267 23.3997 22.729 23.202 22.729 22.9589C22.729 22.7159 22.9267 22.5181 23.1698 22.5181C23.4128 22.5181 23.6105 22.7159 23.6105 22.9589ZM18.7712 7.56724V16.8854C17.475 16.8004 17.1864 15.8433 16.8863 14.3298C16.7328 13.5561 16.5879 12.8253 16.1709 12.3228C15.8855 11.9788 15.5056 11.7871 15.0722 11.7685C14.3889 11.739 13.6854 12.138 13.1889 12.5045V8.65422C13.1889 8.65261 13.1887 8.65104 13.1887 8.64944V7.56724H18.7712ZM6.8032 24.3265V9.77416L12.3855 9.10674V15.584C12.018 17.197 10.8809 17.996 9.86895 18.3912C9.65044 18.0326 9.25566 17.7927 8.80591 17.7927C8.11997 17.7927 7.56195 18.3507 7.56195 19.0367C7.56195 19.7226 8.11997 20.2806 8.80591 20.2806C9.44177 20.2806 9.96738 19.8009 10.0408 19.1845C10.7558 18.9199 11.6964 18.4182 12.3855 17.4908V22.5269C12.3855 22.5286 12.3857 22.5302 12.3857 22.532V23.6591L6.8032 24.3265ZM9.24667 19.0366C9.24667 19.2796 9.04896 19.4774 8.80591 19.4774C8.56286 19.4774 8.36515 19.2797 8.36515 19.0366C8.36515 18.7936 8.56286 18.5959 8.80591 18.5959C9.04896 18.5959 9.24667 18.7936 9.24667 19.0366ZM13.1889 22.1253V13.5471C13.5605 13.1992 14.3982 12.5438 15.0376 12.5709C15.2467 12.5799 15.4104 12.664 15.5528 12.8356C15.8397 13.1814 15.9653 13.8151 16.0984 14.486C16.2468 15.2345 16.4002 16.0085 16.8079 16.6272C17.242 17.2862 17.9017 17.6423 18.7712 17.6894V22.1253H13.1889V22.1253Z" fill="white"/>
<path d="M22.6623 10.2097C22.8841 10.2097 23.0639 10.0299 23.0639 9.8081C23.0639 9.5863 22.8841 9.40649 22.6623 9.40649C22.4405 9.40649 22.2607 9.5863 22.2607 9.8081C22.2607 10.0299 22.4405 10.2097 22.6623 10.2097Z" fill="white"/>
</g>
<defs>
<clipPath id="clip0_1_7280">
<rect width="20" height="20" fill="white" transform="translate(6 6.37256)"/>
</clipPath>
</defs>
</svg>
