<svg width="25" height="24" viewBox="0 0 25 24" fill="none" xmlns="http://www.w3.org/2000/svg">
<path d="M23.9242 4.13734L22.5454 3.95036C22.2816 3.91441 22.0388 4.09937 22.0031 4.36313C21.9674 4.62688 22.1521 4.86967 22.4159 4.90543L23.3775 5.03589V22.4952L16.6785 21.5677V15.3341C16.8687 15.3683 17.1021 15.4268 17.3441 15.5274C18.1038 15.8429 18.585 16.4149 18.7742 17.2277C18.9625 18.0356 19.2398 18.7161 19.5997 19.2572C19.5053 19.4529 19.4524 19.6721 19.4524 19.9036C19.4524 20.7267 20.122 21.3963 20.9451 21.3963C21.7682 21.3963 22.4379 20.7267 22.4379 19.9036C22.4379 19.0804 21.7682 18.4108 20.9451 18.4108C20.7138 18.4108 20.4947 18.4637 20.299 18.558C20.0533 18.1385 19.8535 17.612 19.713 17.009C19.453 15.8925 18.7618 15.0724 17.7138 14.6372C17.3244 14.4755 16.9537 14.397 16.6785 14.359V4.10727L18.126 4.30766C18.3898 4.34399 18.633 4.16004 18.6695 3.89638C18.706 3.63277 18.5219 3.3894 18.2582 3.35297L16.6307 3.12762V0.951648C16.6307 0.685483 16.4149 0.469727 16.1487 0.469727H8.48579C8.21962 0.469727 8.00387 0.685483 8.00387 0.951648V2.31028L0.766026 3.17562C0.523716 3.20459 0.341309 3.41012 0.341309 3.65412V22.0876C0.341309 22.372 0.597787 22.6 0.880435 22.5661L8.54328 21.65C8.78559 21.621 8.968 21.4154 8.968 21.1715V19.8671H15.7146V21.9875C15.7146 22.2282 15.8921 22.4319 16.1304 22.4649L23.7933 23.5258C24.0787 23.5654 24.3413 23.3362 24.3413 23.0484V4.61493C24.3413 4.37373 24.1631 4.16973 23.9242 4.13734ZM21.474 19.9036C21.474 20.1952 21.2367 20.4325 20.9451 20.4325C20.6534 20.4325 20.4162 20.1952 20.4162 19.9036C20.4162 19.6119 20.6534 19.3747 20.9451 19.3747C21.2367 19.3747 21.474 19.612 21.474 19.9036ZM15.6667 1.43357V12.6154C14.1113 12.5133 13.765 11.3648 13.4048 9.54865C13.2207 8.62023 13.0468 7.74328 12.5464 7.1402C12.2039 6.72748 11.748 6.49746 11.228 6.47505C10.408 6.43963 9.56385 6.91847 8.968 7.35832V2.73794L8.96771 2.73221V1.43357H15.6667ZM1.30515 21.5447V4.08188L8.00387 3.28097V11.0537C7.56286 12.9893 6.19844 13.9481 4.98405 14.4223C4.72183 13.992 4.2481 13.7041 3.7084 13.7041C2.88528 13.7041 2.21565 14.3738 2.21565 15.1969C2.21565 16.02 2.88528 16.6896 3.7084 16.6896C4.47143 16.6896 5.10217 16.114 5.19021 15.3743C6.04823 15.0567 7.17694 14.4547 8.00387 13.3419V19.3852C8.00387 19.3872 8.00416 19.3892 8.00416 19.3912V20.7437L1.30515 21.5447ZM4.23731 15.1968C4.23731 15.4884 4.00006 15.7257 3.7084 15.7257C3.41674 15.7257 3.17949 15.4885 3.17949 15.1968C3.17949 14.9052 3.41674 14.6679 3.7084 14.6679C4.00006 14.6679 4.23731 14.9052 4.23731 15.1968ZM8.968 18.9032V8.60944C9.41392 8.1919 10.4191 7.4054 11.1864 7.43793C11.4373 7.44877 11.6338 7.54969 11.8046 7.75561C12.149 8.17055 12.2997 8.93097 12.4593 9.73607C12.6374 10.6343 12.8216 11.5631 13.3107 12.3055C13.8317 13.0964 14.6233 13.5236 15.6667 13.5801V18.9032L8.968 18.9032Z" fill="black"/>
<path d="M20.3359 4.60447C20.6021 4.60447 20.8178 4.38871 20.8178 4.12255C20.8178 3.85639 20.6021 3.64062 20.3359 3.64062C20.0698 3.64062 19.854 3.85639 19.854 4.12255C19.854 4.38871 20.0698 4.60447 20.3359 4.60447Z" fill="black"/>
</svg>
