<svg width="20" height="14" viewBox="0 0 20 14" fill="none" xmlns="http://www.w3.org/2000/svg">
<path d="M19.6055 13.0538H0.394477C0.176647 13.0538 0 13.2304 0 13.4483C0 13.6662 0.176647 13.8428 0.394477 13.8428H19.6055C19.8234 13.8428 20 13.6662 20 13.4483C20 13.2304 19.8234 13.0538 19.6055 13.0538Z" fill="white"/>
<path d="M0.191445 6.93468L3.09886 8.92186C3.75361 9.3694 4.52332 9.59772 5.2963 9.59768C5.85586 9.59768 6.41716 9.47799 6.93748 9.23515L9.80198 7.89638C9.99933 7.80411 10.0845 7.56932 9.99231 7.372C9.90008 7.17464 9.66533 7.08947 9.46789 7.18162L6.60363 8.52036C5.61598 8.98119 4.44367 8.88549 3.54399 8.27054L1.13929 6.62695L2.22158 5.96312L5.00687 6.88699C5.10292 6.9189 5.20758 6.91259 5.29918 6.86943L8.61791 5.30612C8.74158 5.24786 8.82624 5.12979 8.84174 4.99397C8.85724 4.85819 8.80135 4.72403 8.69397 4.63941L5.03196 1.75369L6.45618 1.02699L13.0434 3.11101C13.138 3.14095 13.2403 3.13409 13.3301 3.09196L17.7372 1.02107C18.2346 0.812866 18.8368 1.04036 19.082 1.53038C19.2074 1.78095 19.2258 2.06466 19.1336 2.32928C19.0415 2.59389 18.8509 2.80486 18.5969 2.92344L12.6765 5.68924C12.4791 5.78143 12.3938 6.01622 12.486 6.21358C12.5782 6.41093 12.813 6.4963 13.0104 6.40403L18.9307 3.63831C19.3793 3.42896 19.7159 3.05622 19.8787 2.58872C20.0415 2.12123 20.0091 1.61997 19.7875 1.17732C19.3582 0.319336 18.2968 -0.0751418 17.4218 0.297955C17.4174 0.299809 17.4131 0.301781 17.4088 0.303793L13.1343 2.31235L6.53997 0.226002C6.44123 0.19476 6.33401 0.203596 6.24166 0.250736L4.1247 1.33093C4.00494 1.39204 3.92454 1.50999 3.9114 1.64379C3.89827 1.7776 3.95421 1.90892 4.05985 1.99216L7.70462 4.86427L5.10565 6.08853L2.2959 5.15654C2.18549 5.11997 2.06462 5.13389 1.96545 5.19468L0.207776 6.27275C0.0937721 6.34265 0.0229635 6.46561 0.0196499 6.59926C0.0163757 6.73299 0.08107 6.85922 0.191445 6.93468Z" fill="white"/>
<path d="M11.0687 6.42981C10.8715 6.52192 10.7863 6.75639 10.8784 6.95355C10.9705 7.15071 11.205 7.23588 11.4022 7.14377C11.5993 7.05166 11.6845 6.81718 11.5924 6.62002C11.5003 6.4229 11.2658 6.33774 11.0687 6.42981Z" fill="white"/>
</svg>
