<svg width="33" height="33" viewBox="0 0 33 33" fill="none" xmlns="http://www.w3.org/2000/svg">
<path d="M33 16.5C33 25.6127 25.6127 33 16.5 33C7.3873 33 0 25.6127 0 16.5C0 7.3873 7.3873 0 16.5 0C25.6127 0 33 7.3873 33 16.5Z" fill="#FB923C"/>
<g clip-path="url(#clip0_1_7140)">
<path d="M25.6055 22.0538H6.39448C6.17665 22.0538 6 22.2304 6 22.4483C6 22.6662 6.17665 22.8428 6.39448 22.8428H25.6055C25.8234 22.8428 26 22.6662 26 22.4483C26 22.2304 25.8234 22.0538 25.6055 22.0538Z" fill="white"/>
<path d="M6.19144 15.9347L9.09886 17.9219C9.75361 18.3694 10.5233 18.5977 11.2963 18.5977C11.8559 18.5977 12.4172 18.478 12.9375 18.2352L15.802 16.8964C15.9993 16.8041 16.0845 16.5693 15.9923 16.372C15.9001 16.1746 15.6653 16.0895 15.4679 16.1816L12.6036 17.5204C11.616 17.9812 10.4437 17.8855 9.54399 17.2705L7.13929 15.6269L8.22158 14.9631L11.0069 15.887C11.1029 15.9189 11.2076 15.9126 11.2992 15.8694L14.6179 14.3061C14.7416 14.2479 14.8262 14.1298 14.8417 13.994C14.8572 13.8582 14.8013 13.724 14.694 13.6394L11.032 10.7537L12.4562 10.027L19.0434 12.111C19.138 12.141 19.2403 12.1341 19.3301 12.092L23.7372 10.0211C24.2346 9.81287 24.8368 10.0404 25.082 10.5304C25.2074 10.781 25.2258 11.0647 25.1336 11.3293C25.0415 11.5939 24.8509 11.8049 24.5969 11.9234L18.6765 14.6892C18.4791 14.7814 18.3938 15.0162 18.486 15.2136C18.5782 15.4109 18.813 15.4963 19.0104 15.404L24.9307 12.6383C25.3793 12.429 25.7159 12.0562 25.8787 11.5887C26.0415 11.1212 26.0091 10.62 25.7875 10.1773C25.3582 9.31934 24.2968 8.92486 23.4218 9.29795C23.4174 9.29981 23.4131 9.30178 23.4088 9.30379L19.1343 11.3124L12.54 9.226C12.4412 9.19476 12.334 9.2036 12.2417 9.25074L10.1247 10.3309C10.0049 10.392 9.92454 10.51 9.9114 10.6438C9.89827 10.7776 9.95421 10.9089 10.0598 10.9922L13.7046 13.8643L11.1056 15.0885L8.2959 14.1565C8.18549 14.12 8.06462 14.1339 7.96545 14.1947L6.20778 15.2727C6.09377 15.3426 6.02296 15.4656 6.01965 15.5993C6.01638 15.733 6.08107 15.8592 6.19144 15.9347Z" fill="white"/>
<path d="M17.0687 15.4298C16.8715 15.5219 16.7863 15.7564 16.8784 15.9536C16.9705 16.1507 17.205 16.2359 17.4022 16.1438C17.5993 16.0517 17.6845 15.8172 17.5924 15.62C17.5003 15.4229 17.2658 15.3377 17.0687 15.4298Z" fill="white"/>
</g>
<defs>
<clipPath id="clip0_1_7140">
<rect width="20" height="20" fill="white" transform="translate(6 6)"/>
</clipPath>
</defs>
</svg>
